<?xml version="1.0" standalone="no"?><!DOCTYPE svg PUBLIC "-//W3C//DTD SVG 1.1//EN" "http://www.w3.org/Graphics/SVG/1.1/DTD/svg11.dtd"><svg class="icon" width="200px" height="200.00px" viewBox="0 0 1024 1024" version="1.1" xmlns="http://www.w3.org/2000/svg"><path fill="#37b0fe" d="M700.416 136.704h-22.528c-18.432 0-33.28 14.848-33.28 33.28V235.52c0 18.432 14.848 33.28 33.28 33.28h22.528c18.432 0 33.28-14.848 33.28-33.28V169.472c0-17.92-14.848-32.768-33.28-32.768z m-352.256 0h-22.528c-18.432 0-33.28 14.848-33.28 33.28V235.52c0 18.432 14.848 33.28 33.28 33.28H348.16c18.432 0 33.28-14.848 33.28-33.28V169.472c-0.512-17.92-15.36-32.768-33.28-32.768zM822.784 225.28c-23.552 0-43.008 19.456-43.008 43.008v11.776c0 18.944-15.36 34.304-33.792 34.304h-109.568c-18.944 0-33.792-15.36-33.792-34.304v-20.992c0-18.944-15.36-34.304-34.304-34.304H458.24c-18.944 0-34.304 15.36-34.304 34.304v20.992c0 18.944-15.36 34.304-34.304 34.304H280.576c-18.944 0-34.304-15.36-34.304-34.304v-11.776c0-23.552-19.456-43.008-43.008-43.008-25.088 0-45.568 20.48-45.568 45.568v573.44c0 23.552 19.456 43.008 43.008 43.008h622.08c23.552 0 43.008-19.456 43.008-43.008V268.288c2.56-24.064-18.944-43.008-43.008-43.008z m-441.856 460.8c0 14.336-11.776 26.112-26.112 26.112h-36.352c-14.336 0-26.112-11.776-26.112-26.112v-35.84c0-14.336 11.776-26.112 26.112-26.112h36.352c14.336 0 26.112 11.776 26.112 26.112v35.84z m0-177.664c0 14.336-11.776 26.112-26.112 26.112h-36.352c-14.336 0-26.112-11.776-26.112-26.112v-36.352c0-14.336 11.776-26.112 26.112-26.112h36.352c14.336 0 26.112 11.776 26.112 26.112v36.352z m175.104 177.664c0 14.336-11.776 26.112-26.112 26.112h-36.352c-14.336 0-26.112-11.776-26.112-26.112v-35.84c0-14.336 11.776-26.112 26.112-26.112h36.352c14.336 0 26.112 11.776 26.112 26.112v35.84z m0-177.664c0 14.336-11.776 26.112-26.112 26.112h-36.352c-14.336 0-26.112-11.776-26.112-26.112v-36.352c0-14.336 11.776-26.112 26.112-26.112h36.352c14.336 0 26.112 11.776 26.112 26.112v36.352z m177.664 177.664c0 14.336-11.776 26.112-26.112 26.112h-36.352c-14.336 0-26.112-11.776-26.112-26.112v-35.84c0-14.336 11.776-26.112 26.112-26.112h36.352c14.336 0 26.112 11.776 26.112 26.112v35.84z m0-177.664c0 14.336-11.776 26.112-26.112 26.112h-36.352c-14.336 0-26.112-11.776-26.112-26.112v-36.352c0-14.336 11.776-26.112 26.112-26.112h36.352c14.336 0 26.112 11.776 26.112 26.112v36.352z" /></svg>