<?xml version="1.0" standalone="no"?><!DOCTYPE svg PUBLIC "-//W3C//DTD SVG 1.1//EN" "http://www.w3.org/Graphics/SVG/1.1/DTD/svg11.dtd"><svg t="1563100217343" class="icon" viewBox="0 0 1024 1024" version="1.1" xmlns="http://www.w3.org/2000/svg" p-id="6056" xmlns:xlink="http://www.w3.org/1999/xlink" width="200" height="200"><defs><style type="text/css"></style></defs><path d="M512 911.36A399.36 399.36 0 1 1 911.36 512 399.7696 399.7696 0 0 1 512 911.36z m0-737.28A337.92 337.92 0 1 0 849.92 512 338.3296 338.3296 0 0 0 512 174.08z" fill="#37b0fe" p-id="6057"></path><path d="M512 686.08a174.08 174.08 0 1 1 174.08-174.08 174.2848 174.2848 0 0 1-174.08 174.08z m0-286.72a112.64 112.64 0 1 0 112.64 112.64 112.8448 112.8448 0 0 0-112.64-112.64z" fill="#37b0fe" p-id="6058"></path></svg>