<?xml version="1.0" standalone="no"?><!DOCTYPE svg PUBLIC "-//W3C//DTD SVG 1.1//EN" "http://www.w3.org/Graphics/SVG/1.1/DTD/svg11.dtd"><svg class="icon" width="200px" height="200.00px" viewBox="0 0 1024 1024" version="1.1" xmlns="http://www.w3.org/2000/svg"><path fill="#37b0fe" d="M843.5462005333334 791.9729329777776H180.45379946666668c-26.207134933333336 0-47.35447573333333-21.277079466666663-47.3544768-47.35447573333333v-473.5447594666667c0-26.207134933333336 21.277079466666663-47.35447573333333 47.3544768-47.3544768h663.0924010666666c26.207134933333336 0 47.35447573333333 21.277079466666663 47.3544768 47.3544768v473.6744981333333c0 26.077396266666664-21.277079466666663 47.22473813333333-47.3544768 47.22473706666666z m-53.06296-467.8362752c-9.211418666666667-9.211418666666667-24.261060266666668-9.211418666666667-33.472478933333335 0l-82.12433813333334 81.2161696-115.4670784 115.4670784v-0.2594762666666667c-12.714352 12.195399466666666-29.839806933333332 19.8499584-48.7815968 19.8499584-17.774146133333332 0-33.472478933333335-7.1356064-45.927354666666666-17.90388373333333v1.1676448000000001L309.5433984 368.7666300444445l1.1676437333333332-0.6486912-43.72180373333333-43.8515424c-9.211418666666667-9.211418666666667-24.261060266666668-9.211418666666667-33.472478933333335 0-9.211418666666667 9.211418666666667-9.211418666666667 24.261060266666668 0 33.472478933333335l149.84772586666668 150.62615466666665L233.51675946666666 658.0830172444444c-9.211418666666667 9.211418666666667-9.211418666666667 24.261060266666668 0 33.472478933333335 9.211418666666667 9.211418666666667 24.261060266666668 9.211418666666667 33.472478933333335 0l149.7179872-149.7179872 39.18096426666667 39.31070186666667c1.9460746666666668 2.2055509333333334 4.021886933333334 4.2813632 6.2274378666666665 6.2274389333333335l2.594765866666666 2.5947648v-0.5189525333333334c12.195399466666666 9.860109866666667 27.504517333333336 15.957810133333334 44.37049493333333 15.957809066666666 19.720219733333334 0 37.49436586666666-8.043773866666667 50.338456533333336-20.887864533333335v1.5568597333333334l45.6678784-45.1489248 150.49641706666668 150.49641706666668c9.211418666666667 9.211418666666667 24.261060266666668 9.211418666666667 33.472478933333335 0 9.211418666666667-9.211418666666667 9.211418666666667-24.261060266666668 0-33.472478933333335L638.6894410666666 507.7163388444445l151.79379946666668-150.10720213333335c9.211418666666667-9.211418666666667 9.211418666666667-24.261060266666668 0-33.472478933333335z m0 0" /></svg>