<?xml version="1.0" standalone="no"?><!DOCTYPE svg PUBLIC "-//W3C//DTD SVG 1.1//EN" "http://www.w3.org/Graphics/SVG/1.1/DTD/svg11.dtd"><svg class="icon" width="200px" height="200.00px" viewBox="0 0 1024 1024" version="1.1" xmlns="http://www.w3.org/2000/svg"><path fill="#37b0fe" d="M418.368 344.192l-88.416 89.92C376 536.32 473.632 650.144 586.912 688.416l76.416-76.192s181.184 31.616 221.92 51.392c35.296 17.12 46.976 55.072 41.44 101.888-5.92 50.304-71.84 161.248-190.624 162.464-118.784 1.216-293.696-88.256-419.008-220.288C191.744 575.616 80 408.288 97.92 266.144c17.888-142.08 141.696-167.52 172.672-169.792 31.296-2.304 56.16 6.88 75.04 30.272 24.32 30.144 72.768 217.568 72.768 217.568z"  /></svg>